<?xml version="1.0" encoding="UTF-8" standalone="no"?>
<!-- Created with Inkscape (http://www.inkscape.org/) -->

<svg
   width="57.510521mm"
   height="92.48671mm"
   viewBox="0 0 57.510521 92.48671"
   version="1.1"
   id="svg5"
   xmlns="http://www.w3.org/2000/svg"
   xmlns:svg="http://www.w3.org/2000/svg">
  <defs
     id="defs2" />
  <g
     id="layer1"
     transform="translate(-75.3668,-94.457822)">
    <path
       id="rect566"
       style="fill:#dadada;fill-opacity:0;stroke:#1c1c1c;stroke-width:4.69885;stroke-linecap:round;stroke-dasharray:none;stroke-opacity:1"
       d="m 130.5279,169.10463 c -4.46755,10.26412 -12.90604,15.38373 -24.26337,15.48955 -11.323866,0.10556 -27.10559,-9.09486 -28.394514,-24.23787 -1.288924,-15.14301 5.236629,-20.65577 17.095364,-35.71531 11.85874,-15.05953 9.86518,-27.833748 9.86518,-27.833748" />
    <g
       id="g5063"
       transform="matrix(1.8621108,0,0,1.5431437,-89.926253,-83.082128)">
      <path
         style="fill:#1c1c1c;fill-opacity:1;stroke:#1c1c1c;stroke-width:0.988316;stroke-linecap:round;stroke-dasharray:none;stroke-dashoffset:0;stroke-opacity:1;paint-order:stroke fill markers"
         id="rect3547"
         width="3.03863"
         height="11.722827"
         x="103.48068"
         y="142.63858"
         d="m 104.8036,142.63858 h 0.3928 a 1.3229167,1.3229167 45 0 1 1.32291,1.32292 v 9.07699 a 1.3229167,1.3229167 135 0 1 -1.32291,1.32292 h -0.3928 a 1.3229167,1.3229167 45 0 1 -1.32292,-1.32292 v -9.07699 a 1.3229167,1.3229167 135 0 1 1.32292,-1.32292 z" />
      <path
         style="fill:#1c1c1c;fill-opacity:1;stroke:#1c1c1c;stroke-width:1.161;stroke-linecap:round;stroke-dasharray:none;stroke-dashoffset:0;stroke-opacity:1;paint-order:stroke fill markers"
         id="path3601"
         d="m 64.725235,116.5931 -8.233022,-14.32391 a 0.76378631,0.76378631 120.1108 0 1 0.663672,-1.14439 l 16.521382,0.0319 a 0.76378631,0.76378631 60.110797 0 1 0.659241,1.14696 l -8.288359,14.29196 a 0.76378631,0.76378631 0.11079704 0 1 -1.322914,-0.003 z"
         transform="matrix(0.63403609,0,0,0.53272701,63.524501,99.935673)" />
    </g>
  </g>
</svg>
